<svg id="Layer_1" data-name="Layer 1" xmlns="http://www.w3.org/2000/svg" viewBox="0 0 32 32"><defs><style>.cls-1{fill:#c9c9c9;}</style></defs><path class="cls-1" d="M16.05,4.05h8.69A3.12,3.12,0,0,1,28,7.31V24.74A3.13,3.13,0,0,1,24.76,28H7.33a3.13,3.13,0,0,1-3.24-3.24V7.28A3.12,3.12,0,0,1,7.31,4.05ZM26.41,16.91V7.29a1.53,1.53,0,0,0-1.65-1.64q-8.73,0-17.44,0A1.52,1.52,0,0,0,5.69,7.28c0,3.08,0,6.17,0,9.25a2.18,2.18,0,0,0,0,.24l.18-.13,6-4.74a1.78,1.78,0,0,1,2.65.21c1.54,1.65,3.08,3.29,4.61,4.94a1.1,1.1,0,0,1,.15.24l.23-.25,2.08-2.22a1.74,1.74,0,0,1,1.65-.54,1.85,1.85,0,0,1,1,.55Z"/><path class="cls-1" d="M19.5,12.69a1.6,1.6,0,1,1,1.58-1.6A1.57,1.57,0,0,1,19.5,12.69Z"/></svg>